#!OML:ASF H:\ManfredETheater\Project 1\Capture day 1\Session 1\subject.ASF
:FULLY-SPECIFIED
:DEGREES
219
root 5.24357 12.2466 2.9466 38.611 -77.3404 -25.3126
lowerback 69.7337 2.66522 3.86658
upperback 10.7846 2.42149 -0.52064
thorax -9.04287 0.0118857 -3.0857
lowerneck -10.3276 39.5229 5.65618
upperneck 5.31309 57.4827 2.12499
head 29.2163 -38.4337 147.044
rclavicle -4.07509e-014 -5.48646e-014
rhumerus -16.167 -13.3555 -53.1596
rradius 59.1339
rwrist -27.658
rhand -21.9087 -0.171059
rfingers 7.12502
rthumb 4.49692 -30.1033
lclavicle -4.07509e-014 -5.48646e-014
lhumerus -45.8484 -2.72121 76.0656
lradius 140.533
lwrist -3.89447
lhand -34.4242 2.69234
lfingers 7.12502
lthumb -7.58898 32.5362
rfemur -68.5021 -19.2602 4.27672
rtibia 112.836
rfoot -21.158 20.3574
rtoes -40.769
lfemur -95.9234 37.0737 -22.157
ltibia 108.944
lfoot -13.6294 -18.1404
ltoes -0.451341
220
root 5.22458 12.2506 3.10939 37.4832 -77.008 -23.598
lowerback 68.5628 2.82814 3.70264
upperback 11.0237 2.52712 -0.492485
thorax -8.82579 0.0905052 -3.04901
lowerneck -10.6682 39.2282 5.42528
upperneck 5.28789 57.5095 2.01366
head 29.4688 -38.548 146.783
rclavicle 2.82274e-014 -2.46493e-014
rhumerus -16.2888 -13.145 -53.3216
rradius 59.0379
rwrist -27.4329
rhand -22.0242 -0.0981585
rfingers 7.12502
rthumb 4.38543 -30.0328
lclavicle 2.82274e-014 -2.46493e-014
lhumerus -45.773 -3.30446 76.3737
lradius 139.707
lwrist -4.02674
lhand -34.4762 2.12439
lfingers 7.12502
lthumb -7.63921 31.9664
rfemur -68.0252 -18.0266 4.29804
rtibia 112.279
rfoot -22.0822 19.9918
rtoes -41.7079
lfemur -96.2825 36.5063 -22.8099
ltibia 107.777
lfoot -14.9871 -11.9134
ltoes -2.55612
221
root 5.20487 12.2528 3.27518 36.6742 -76.5381 -22.1306
lowerback 67.2644 2.88535 3.61634
upperback 11.254 2.58113 -0.479427
thorax -8.61202 0.152199 -3.03865
lowerneck -11.0045 38.962 5.22149
upperneck 5.26266 57.5585 1.90417
head 29.7332 -38.656 146.504
rclavicle -3.57812e-014 1.14053e-014
rhumerus -16.2921 -12.9944 -53.6514
rradius 58.8848
rwrist -27.1624
rhand -22.2167 -0.0958526
rfingers 7.12502
rthumb 4.19955 -30.0342
lclavicle -3.57812e-014 1.14053e-014
lhumerus -45.7171 -3.89817 76.758
lradius 138.801
lwrist -4.14878
lhand -34.412 1.64818
lfingers 7.12502
lthumb -7.57727 31.4925
rfemur -67.3441 -16.7623 4.06209
rtibia 111.526
rfoot -23.5867 18.4946
rtoes -43.4029
lfemur -96.5994 35.8315 -23.3223
ltibia 106.457
lfoot -15.8237 -6.54404
ltoes -3.25944
222
root 5.18441 12.2512 3.44433 36.0891 -75.9047 -20.8306
lowerback 65.849 2.81307 3.64391
upperback 11.4753 2.57599 -0.483114
thorax -8.39577 0.194403 -3.06873
lowerneck -11.3321 38.7182 5.06044
upperneck 5.22793 57.6037 1.79693
head 29.9965 -38.7606 146.222
rclavicle -2.0276e-014 -1.32192e-014
rhumerus -16.2071 -12.9433 -54.1488
rradius 58.6718
rwrist -26.849
rhand -22.4862 -0.162996
rfingers 7.12502
rthumb 3.93927 -30.1063
lclavicle -2.0276e-014 -1.32192e-014
lhumerus -45.64 -4.48631 77.1778
lradius 137.851
lwrist -4.21725
lhand -34.3343 1.06589
lfingers 7.12502
lthumb -7.50226 30.9128
rfemur -66.5158 -15.5826 3.58339
rtibia 110.676
rfoot -25.4179 16.1146
rtoes -45.5944
lfemur -96.984 35.0379 -23.7925
ltibia 105.153
lfoot -16.435 -2.40694
ltoes -3.58387
223
root 5.16287 12.2459 3.61753 35.6192 -75.1106 -19.6692
lowerback 64.4274 2.63968 3.80327
upperback 11.6751 2.54598 -0.482284
thorax -8.18344 0.227811 -3.13786
lowerneck -11.6681 38.4642 4.93615
upperneck 5.16433 57.5876 1.68462
head 30.2384 -38.8815 145.953
rclavicle 4.37326e-015 3.36443e-014
rhumerus -16.1079 -13.0075 -54.7248
rradius 58.4315
rwrist -26.5719
rhand -22.8356 -0.309164
rfingers 7.12502
rthumb 3.60183 -30.2585
lclavicle 4.37326e-015 3.36443e-014
lhumerus -45.4818 -5.10598 77.6504
lradius 136.899
lwrist -4.23399
lhand -34.2975 0.566512
lfingers 7.12502
lthumb -7.46669 30.4147
rfemur -65.5215 -14.5111 2.88056
rtibia 109.785
rfoot -27.2235 13.2894
rtoes -47.7895
lfemur -97.4462 34.1817 -24.283
ltibia 104.059
lfoot -16.9382 0.408567
ltoes -3.49813
224
root 5.13985 12.2384 3.79492 35.1406 -74.1884 -18.5983
lowerback 63.1169 2.39849 4.07186
upperback 11.8346 2.50456 -0.473767
thorax -7.99588 0.255115 -3.23939
lowerneck -12.0097 38.1908 4.85157
upperneck 5.06703 57.4934 1.56683
head 30.4541 -39.0281 145.703
rclavicle -8.0309e-014 1.81888e-014
rhumerus -16.027 -13.2119 -55.3716
rradius 58.1793
rwrist -26.329
rhand -23.2489 -0.519932
rfingers 7.12502
rthumb 3.20275 -30.4756
lclavicle -8.0309e-014 1.81888e-014
lhumerus -45.212 -5.74118 78.1633
lradius 135.966
lwrist -4.2546
lhand -34.3222 0.205178
lfingers 7.12502
lthumb -7.49055 30.0526
rfemur -64.3447 -13.5425 1.98884
rtibia 108.876
rfoot -28.7607 10.4209
rtoes -49.6843
lfemur -97.9704 33.3029 -24.8587
ltibia 103.312
lfoot -17.4177 1.99348
ltoes -3.06683
225
root 5.11408 12.2302 3.97564 34.6214 -73.2096 -17.6657
lowerback 62.0252 2.19338 4.37795
upperback 11.9523 2.51852 -0.427468
thorax -7.83965 0.29916 -3.33782
lowerneck -12.3857 37.8659 4.78165
upperneck 4.92037 57.2846 1.43146
head 30.6322 -39.2187 145.484
rclavicle -1.31198e-014 -1.67476e-014
rhumerus -16.0339 -13.5267 -55.9633
rradius 57.9525
rwrist -26.2115
rhand -23.6837 -0.728815
rfingers 7.12502
rthumb 2.78283 -30.6904
lclavicle -1.31198e-014 -1.67476e-014
lhumerus -44.7852 -6.40132 78.7119
lradius 135.067
lwrist -4.33891
lhand -34.3874 -0.039792
lfingers 7.12502
lthumb -7.5535 29.8053
rfemur -62.9806 -12.6173 0.965598
rtibia 107.965
rfoot -29.9074 7.76887
rtoes -51.2124
lfemur -98.4952 32.5003 -25.556
ltibia 102.99
lfoot -17.8884 2.57271
ltoes -2.39148
226
root 5.08459 12.2232 4.1585 34.0934 -72.2361 -16.9433
lowerback 61.2251 2.07941 4.6553
upperback 12.0141 2.61144 -0.34192
thorax -7.73989 0.367113 -3.41255
lowerneck -12.7887 37.4965 4.72147
upperneck 4.73821 56.9796 1.28608
head 30.7823 -39.4468 145.286
rclavicle 3.37934e-014 -1.14798e-014
rhumerus -16.1162 -13.9579 -56.5347
rradius 57.7506
rwrist -26.1545
rhand -24.1318 -0.935129
rfingers 7.12502
rthumb 2.35012 -30.9019
lclavicle 3.37934e-014 -1.14798e-014
lhumerus -44.208 -7.04152 79.2885
lradius 134.205
lwrist -4.56544
lhand -34.4293 -0.158294
lfingers 7.12502
lthumb -7.594 29.6854
rfemur -61.466 -11.6559 -0.0969955
rtibia 107.034
rfoot -30.6229 5.75196
rtoes -52.242
lfemur -98.9519 31.8527 -26.363
ltibia 103.084
lfoot -18.3724 2.43703
ltoes -1.2319
227
root 5.05119 12.2175 4.34285 33.5809 -71.2821 -16.4287
lowerback 60.6853 2.07094 4.87893
upperback 12.0278 2.78987 -0.215651
thorax -7.69442 0.462077 -3.45368
lowerneck -13.2293 37.0888 4.66078
upperneck 4.5311 56.6074 1.13244
head 30.916 -39.6949 145.096
rclavicle -4.85035e-014 1.51573e-014
rhumerus -16.2803 -14.4731 -57.0603
rradius 57.5825
rwrist -26.1736
rhand -24.5573 -1.09995
rfingers 7.12502
rthumb 1.93913 -31.0709
lclavicle -4.85035e-014 1.51573e-014
lhumerus -43.4906 -7.64718 79.9001
lradius 133.367
lwrist -4.98335
lhand -34.3962 -0.151977
lfingers 7.12502
lthumb -7.56198 29.6928
rfemur -59.8733 -10.7158 -1.08774
rtibia 106.106
rfoot -30.9251 4.13314
rtoes -52.9689
lfemur -99.3261 31.3571 -27.2742
ltibia 103.512
lfoot -18.8662 1.96272
ltoes 0.256336
228
root 5.01288 12.2134 4.52697 33.2317 -70.3822 -16.213
lowerback 60.3217 2.21142 5.00022
upperback 12.0059 3.0769 -0.0442037
thorax -7.69328 0.594343 -3.44566
lowerneck -13.7047 36.6537 4.59731
upperneck 4.30878 56.1918 0.973781
head 31.0474 -39.9603 144.899
rclavicle -1.98785e-014 -5.38706e-014
rhumerus -16.5144 -15.0347 -57.5448
rradius 57.4484
rwrist -26.2424
rhand -24.9562 -1.21135
rfingers 7.12502
rthumb 1.55385 -31.1854
lclavicle -1.98785e-014 -5.38706e-014
lhumerus -42.6573 -8.20158 80.5596
lradius 132.529
lwrist -5.57894
lhand -34.2508 -0.0343009
lfingers 7.12502
lthumb -7.4217 29.8155
rfemur -58.3163 -9.74907 -1.96044
rtibia 105.23
rfoot -30.8774 3.15908
rtoes -53.4289
lfemur -99.6242 31.0544 -28.2437
ltibia 104.151
lfoot -19.3478 1.43492
ltoes 1.94527
229
root 4.96975 12.2131 4.70994 33.1527 -69.5207 -16.3237
lowerback 60.0118 2.4989 5.01808
upperback 11.9661 3.47221 0.174438
thorax -7.71665 0.76644 -3.38687
lowerneck -14.2117 36.2037 4.5341
upperneck 4.07761 55.7562 0.811954
head 31.1868 -40.2363 144.685
rclavicle -8.5875e-014 -3.04141e-014
rhumerus -16.804 -15.6069 -58.002
rradius 57.3428
rwrist -26.3186
rhand -25.3489 -1.28627
rfingers 7.12502
rthumb 1.1746 -31.2628
lclavicle -8.5875e-014 -3.04141e-014
lhumerus -41.7325 -8.70767 81.2816
lradius 131.657
lwrist -6.2983
lhand -34.0222 0.200213
lfingers 7.12502
lthumb -7.20096 30.0577
rfemur -56.8687 -8.77331 -2.62945
rtibia 104.402
rfoot -30.4516 2.52068
rtoes -53.6999
lfemur -99.8744 30.915 -29.205
ltibia 104.872
lfoot -19.8864 1.06596
ltoes 3.69026
